<?xml version="1.0" encoding="UTF-8"?>
<!DOCTYPE svg PUBLIC "-//W3C//DTD SVG 1.1//EN" "http://www.w3.org/Graphics/SVG/1.1/DTD/svg11.dtd">
<!-- Creator: CorelDRAW X5 -->
<svg xmlns="http://www.w3.org/2000/svg" xml:space="preserve" width="100mm" height="100mm" style="shape-rendering:geometricPrecision; text-rendering:geometricPrecision; image-rendering:optimizeQuality; fill-rule:evenodd; clip-rule:evenodd"
viewBox="0 0 246914 246914"
 xmlns:xlink="http://www.w3.org/1999/xlink">
 <defs>
  <style type="text/css">
   <![CDATA[
    .fil6 {fill:none}
    .fil0 {fill:#2B2A29}
    .fil3 {fill:#2E75D5}
    .fil4 {fill:#2B2A29}
    .fil1 {fill:#FFE619}
    .fil2 {fill:#F83624}
    .fil5 {fill:#2B2A29;fill-rule:nonzero}
   ]]>
  </style>
 </defs>
 <g id="Ebene_x0020_1">
  <metadata id="CorelCorpID_0Corel-Layer"/>
  <circle class="fil0" cx="123457" cy="123457" r="123457"/>
  <circle class="fil1" cx="123457" cy="123457" r="120370"/>
  <circle class="fil0" cx="123457" cy="123457" r="83333"/>
  <circle class="fil2" cx="123457" cy="123457" r="80247"/>
  <path class="fil3" d="M79060 190308c4630,-1273 9313,-4530 16971,-9385 22487,-14257 24957,3027 41552,-3696 8081,-3274 16738,-13030 29799,-15305 8520,-1484 19524,-3263 29463,-5968 4406,-9935 6858,-20929 6858,-32497 0,-27851 -14190,-52385 -35733,-66774 -4915,4060 -10914,8554 -20762,12860 -24253,10606 -27937,-2310 -44250,9962 -28884,21729 -14070,-9135 -35860,9363 -7532,6394 -13733,4684 -18946,6805 -3195,8658 -4942,18016 -4942,27784 0,27901 14242,52473 35850,66852z"/>
  <g id="_364340936">
   <path class="fil2" d="M90478 106322l818 136 409 136 682 137 682 136 546 137 136 136 -136 -136 -546 -137 -682 -136 -682 -137 -409 -136 -818 -136c-389,-856 3308,-5186 4019,-6075 1995,-2497 2231,-3670 5525,-4842 3425,-1219 13795,1108 17695,2093 3517,888 34906,6237 35097,6505l-137 137 137 -137 4133 -1387c-13607,-4044 -29023,-5334 -42740,-8702 -3391,-833 -7554,-1416 -11038,-1784 -5090,-538 -5446,-2143 -9664,1533 -2448,2133 -4160,4159 -6248,6592 -766,892 -2047,3291 -1254,4256 495,602 3680,1794 4475,1811z"/>
   <path class="fil2" d="M88978 137421c84,-4078 5691,-8850 10880,-7197 3394,1081 12374,1943 16434,2527 5602,805 11075,1590 16704,2256 2179,258 16083,1748 16545,2414l273 818 136 136 -136 -136 -273 -818 -819 -3202c-196,-11 -16181,-1946 -18064,-2194 -5153,-678 -11842,-1918 -16924,-3127 -5446,-1295 -11890,-2605 -17474,-1929 -3725,451 -4455,257 -7368,2725 -2153,1824 -3949,3098 -3708,6203l-50 128 3846 1395z"/>
   <path class="fil2" d="M166181 108505c2152,-191 3829,-3556 6866,-591 2122,2072 -789,4754 -2791,5485 -4050,1477 -4569,-2138 -2844,4515 237,915 2680,6388 3134,6687 0,-2265 -507,-3834 1889,-5068 1405,-724 4349,-1219 5209,562 957,1983 531,3876 -1394,4889 -2731,1437 -3452,347 -5529,-21 -57,465 2206,5554 4788,3921 788,-498 5659,-3692 5887,-4074 -37,-205 -2237,-3370 -2679,-4287 -757,-1570 -1332,-3293 -1943,-5013 -786,-2214 -2919,-8826 -3089,-10824l-1225 -154 -957 18c-1001,0 -4747,782 -5424,1260l104 2695z"/>
   <path class="fil2" d="M54605 147651c35,-1850 5800,-3986 7335,-4259 3058,-543 8058,164 11216,167 993,-788 -9066,-1807 -10898,-1486 -2151,377 -9300,2264 -7653,5578z"/>
   <path class="fil2" d="M168909 136467l-409 409c238,871 3867,1507 4647,2997 883,1687 -2989,2961 -3555,3823 1717,-153 6403,-1430 5488,-3979 -348,-970 -5532,-3605 -6170,-3250z"/>
   <path class="fil2" d="M167545 111642c1638,0 1504,310 3114,-296 464,-174 1474,-1436 1523,-2023 -391,-181 -639,-273 -1091,-273l-819 0c-1806,0 -2190,967 -3001,2182l273 409z"/>
   <path class="fil2" d="M172729 123918c1420,0 2070,-181 3137,-955l0 -1228 -2590 -169 -976 2013 178 43 250 295z"/>
   <path class="fil4" d="M117213 147788c-344,344 -25234,4400 -27559,4496 -4645,192 -9950,1050 -14739,1356 -1403,90 -6074,48 -6652,-1338 -280,-671 3032,-3403 3699,-4070 3295,-3295 4547,-5136 8712,-7247 2558,-1296 2649,-2962 5086,-1985 1674,671 4045,1348 6128,1922 4160,1147 8380,2583 12429,3667 1921,514 12166,2719 12896,3199zm-44058 -4228c-915,1347 -2788,2992 -3990,4194 -1814,1814 -2346,3171 -5013,3171l-6275 0c-1869,0 -3234,-1411 -3273,-3274 -1647,-3314 5502,-5201 7653,-5578 1832,-321 11891,697 10898,1486zm83165 -4461l2632 5552c-3357,0 -4246,682 -5475,-2163 -1158,-2680 -200,-3829 2843,-3389zm6410 -1087c479,419 2749,5228 3187,6085 1164,2274 1557,6379 -1607,3516 -2682,-2427 -2146,-2607 -3775,-5501 -352,-625 -1478,-2645 -1365,-3174 110,-514 3080,-993 3559,-926zm6179 -1545c638,-355 5822,2280 6170,3250 915,2550 -3772,3827 -5488,3979 -1706,842 -1535,-837 -2385,-2389 -624,-1140 -1386,-2413 -1722,-3788l3425 -1052zm-19369 955l273 818 136 136 4129 11236 -1490 976 -277 131 -6538 -7390 357 -315c-5089,52 -9947,1945 -14951,2645 -1805,253 -6011,1418 -7527,1293 -1069,-88 -5643,-1454 -7067,-1810 -3986,-997 -25699,-6462 -27608,-7720l-3846 -1395 50 -128c-241,-3105 1556,-4379 3708,-6203 2913,-2469 3643,-2274 7368,-2725 5584,-676 12029,634 17474,1929 5082,1208 11772,2448 16924,3127 1883,248 17868,2183 18064,2194l819 3202zm-85115 0l-136 -136 -136 -273 0 -818c50,-2377 3704,-6914 5794,-8392 1987,-1405 3216,-1480 5652,-872 1185,296 4323,1107 5058,2034l137 136c3947,2586 2321,2147 2082,5901 -106,1664 -75,2082 -1684,2954 -861,467 -2061,1278 -2935,1703 -3680,1789 -3249,1263 -7295,638 -1610,-248 -6099,-1259 -6536,-2875zm69733 -19474c1091,-1174 1750,-3247 3411,-4909 1130,-1131 3880,-2896 5423,-2897 29,3820 748,8082 1355,11876 215,1343 778,4042 1318,5229 389,854 2022,3973 2101,4582l-38 251 -28254 -4241 56 -375c17,-6037 -488,-6165 5108,-6895 1674,-219 3399,-498 5004,-998 311,-97 4415,-1581 4515,-1623zm38570 5970l-250 -295 -178 -43 976 -2013 2590 169 0 1228c-1067,773 -1718,955 -3137,955zm-62335 1773l7003 -4131 182 351c46,713 -192,2236 -226,3100 -56,1436 218,2213 -1230,1959 -981,-172 -5261,-992 -5728,-1280zm10183 -10140l7731 1294 -46 253c-587,374 -4325,1077 -5399,1285 -687,133 -2314,768 -2595,150 -107,-233 226,-2733 309,-2982zm-2681 3866l-7160 2415 -45 166 930 -8719c1548,369 3891,963 5371,1177 1709,247 1353,36 1175,1809 -92,909 -253,2274 -272,3152zm-15507 -7888l6641 1204c0,2682 -431,5712 -553,8450 -186,4186 -659,4238 -4826,3340 -4194,-903 -3377,419 -2575,-5148 202,-1400 832,-7033 1313,-7846zm65157 113l-273 -409c810,-1216 1195,-2182 3001,-2182l819 0c452,0 700,92 1091,273 -49,586 -1060,1848 -1523,2023 -1610,606 -1476,296 -3114,296zm-1364 -3137l-104 -2695c677,-478 4423,-1260 5424,-1260l957 -18 1225 154c170,1998 2302,8611 3089,10824 611,1720 1187,3443 1943,5013 442,917 2642,4082 2679,4287 -227,382 -5099,3576 -5887,4074 -2582,1633 -4846,-3456 -4788,-3921 2077,369 2798,1458 5529,21 1926,-1013 2351,-2906 1394,-4889 -860,-1782 -3803,-1286 -5209,-562 -2395,1234 -1889,2803 -1889,5068 -455,-299 -2897,-5772 -3134,-6687 -1724,-6653 -1206,-3038 2844,-4515 2002,-730 4913,-3413 2791,-5485 -3036,-2965 -4713,400 -6866,591zm-9457 29l6066 -438 74 -147 84 1825c-1314,695 -5829,369 -5449,1957 382,1595 5068,-763 5862,-192l228 1740c-1315,354 -6059,862 -6008,1899 92,1889 5223,102 6344,-2l269 1687c-1177,905 -6983,749 -5767,2800l62 288 6085 -1391 486 1245c-815,1178 -6097,1357 -5472,3340l150 467 6218 -2003 -56 -144 554 1497c-1127,1002 -6092,2126 -5530,3590 674,1755 5598,-1925 6500,-1944l815 1918c-972,1151 -7296,1826 -5787,3712 677,541 4124,-959 5056,-1312 771,-292 1665,-1427 1963,-419 198,670 -1119,1335 -1720,1618 -479,226 -1701,861 -2166,1257 -904,768 -418,1931 756,1605 1475,-409 3299,-2345 4396,-2704l1258 1767c-2027,2621 -15227,4798 -18860,5072 -1020,-948 -5206,-10234 -5696,-12059 -662,-2465 -981,-4916 -1524,-7342 -555,-2483 -244,-6199 -741,-8262 3815,-919 8177,-3159 12603,-4447 804,-234 7036,-2489 4752,921 -1023,1527 -6391,598 -5806,2600zm-62972 -1393l-136 -136 -546 -137 -682 -136 -682 -137 -409 -136 -818 -136c-795,-17 -3980,-1209 -4475,-1811 -793,-965 489,-3364 1254,-4256 2088,-2432 3800,-4459 6248,-6592 4218,-3676 4574,-2070 9664,-1533 3484,368 7647,951 11038,1784 13717,3368 29133,4658 42740,8702l-4133 1387 -137 137c-3632,864 -7968,3060 -11570,4252 -6417,2123 -6909,6648 -8489,7406l-11816 -3061 1183 -13070 -2129 -160 -1344 12732 -54 141 -6837 -1435 15 -155 446 -7838 -2234 -177 -24 408 -535 7160 -15536 -3203zm87479 -12523l-3464 -2827 -243 217 3920 10263 -1751 -560 503 2963c-6950,-3667 -8477,-1216 -15378,-1216 -1395,-3688 -17188,-5415 -21158,-6396 -7278,-1799 -15636,-3175 -23066,-4487 -4676,-826 -20024,-4045 -23790,-3619 -3539,401 -13282,10828 -13282,14229l0 1228c0,4886 13643,4559 16253,6380l173 26 -2057 13146c-1470,855 -5069,270 -7440,1698 -887,534 -5182,3955 -5291,3984 -2898,-2066 -2895,-3072 -6937,-4384 -3498,-1136 -5554,-1966 -8970,208 -1737,1106 -4357,4085 -5478,5843 -900,1410 -1479,2029 -1886,3706 -793,3266 681,2925 866,4418 -1719,1211 -6766,194 -10163,4971 -1071,1506 -410,4672 473,6011 1387,2102 2447,2687 4952,2687l6684 0c979,0 3983,2548 5858,2871 2254,389 6086,9 8401,-206 5275,-491 10496,-1190 15767,-1965 10229,-1504 20468,-2892 30656,-4672 4970,-868 9729,-2102 14658,-2938 3505,-595 3779,-1918 6091,1048 1269,1627 3082,3153 4311,4574 1466,1696 -743,3969 2266,6293 2008,1550 4350,1656 6318,-34 1815,-1558 2284,-4414 947,-6402 -2180,-3244 -2983,-415 -4157,-4706 5833,0 5538,745 9375,4391 -582,4975 4061,8046 8220,4884 1397,-1062 1829,-4439 925,-5971 -1946,-3294 -4114,-2149 -5042,-3006 -374,-1336 2666,-1457 4208,-2117 1719,-735 2701,-1301 3525,-3022 2249,-4698 -2192,-5641 -4707,-7299 408,-616 1327,-1010 1931,-1479 978,-759 601,-1120 1585,-1962 1849,-1583 2562,-1613 4434,-2659 1601,-894 2987,-1260 4306,-2650 507,-534 1212,-1291 1562,-1984 270,-534 745,-2176 1197,-2373l148 -41 1150 4122 -135 135 -2302 -1060 1409 7084 -92 109 -4149 -3275 -193 194 9655 21980 233 -56 -1362 -10366 2190 1779 -1806 -8558 107 -111 2228 1307c-4,-41 -610,-2935 -679,-3305 -156,-841 -1101,-1335 -1532,-2668 -679,-2101 -1570,-4280 -2281,-6312 -190,-543 -2154,-6258 -2154,-6283 -12,-1038 1334,-1161 861,-3187 -245,-1047 -1447,-1768 -1725,-2739l1030 -35 -2088 -6525 170 -78 5708 4921 244 -189 -14754 -28715 -230 84 4245 14683zm10593 14160c242,242 -242,-242 0,0z"/>
   <path class="fil2" d="M64153 136194l0 818 136 273 136 136 -136 -136 -136 -273 0 -818 16505 -7229 137 136 -137 -136c-736,-928 -3873,-1739 -5058,-2034 -2436,-608 -3665,-534 -5652,872 -2090,1478 -5744,6015 -5794,8392z"/>
   <path class="fil1" d="M88978 137421c1909,1258 23622,6724 27608,7720 1424,356 5998,1722 7067,1810 1516,125 5722,-1040 7527,-1293 5004,-700 9861,-2593 14951,-2645l-356 315 6538 7390 277 -131 1490 -976 -4129 -11236 -136 -136 -273 -818c-463,-666 -14367,-2157 -16545,-2414 -5629,-666 -11102,-1451 -16704,-2256 -4060,-584 -13040,-1446 -16434,-2527 -5189,-1653 -10796,3119 -10880,7197z"/>
   <path class="fil1" d="M90478 106322l818 136 409 136 682 137 682 136 546 137 136 136 15536 3203 535 -7160 24 -408 2234 177 -446 7838 -15 155 6837 1435 54 -141 1344 -12732 2129 160 -1183 13070 11817 3061c1580,-758 2072,-5284 8489,-7406 3602,-1192 7939,-3388 11570,-4252l137 -137c-192,-268 -31580,-5617 -35097,-6505 -3900,-985 -14270,-3312 -17695,-2093 -3293,1172 -3530,2345 -5525,4842 -710,889 -4407,5220 -4019,6075z"/>
   <path class="fil1" d="M156724 108533c-585,-2002 4783,-1073 5806,-2600 2284,-3410 -3948,-1155 -4752,-921 -4426,1288 -8788,3528 -12603,4447 497,2063 185,5779 741,8262 542,2427 861,4877 1524,7342 490,1825 4676,11111 5696,12059 3633,-274 16833,-2452 18860,-5072l-1258 -1767c-1097,360 -2921,2296 -4396,2704 -1174,326 -1660,-838 -756,-1605 466,-396 1687,-1031 2166,-1257 600,-282 1917,-948 1720,-1618 -298,-1008 -1192,126 -1963,419 -932,354 -4379,1854 -5056,1312 -1509,-1886 4815,-2561 5787,-3712l-815 -1918c-902,19 -5826,3699 -6500,1944 -563,-1464 4403,-2588 5530,-3590l-554 -1497 56 144 -6218 2003 -151 -467c-624,-1983 4657,-2162 5472,-3340l-486 -1245 -6085 1391 -62 -288c-1216,-2051 4590,-1895 5767,-2800l-269 -1687c-1121,104 -6251,1890 -6344,1 -51,-1038 4694,-1546 6008,-1899l-228 -1740c-793,-571 -5480,1787 -5862,192 -380,-1589 4135,-1263 5449,-1958l-84 -1825 -74 147 -6066 438z"/>
   <path class="fil1" d="M117213 147788c-730,-481 -10975,-2685 -12896,-3199 -4048,-1084 -8268,-2520 -12429,-3667 -2083,-574 -4454,-1251 -6128,-1922 -2438,-977 -2529,688 -5087,1985 -4165,2111 -5418,3952 -8712,7247 -667,667 -3979,3399 -3699,4070 578,1386 5249,1428 6652,1338 4789,-306 10094,-1164 14739,-1356 2325,-96 27215,-4152 27559,-4496z"/>
   <path class="fil1" d="M134159 117948c-100,43 -4203,1526 -4515,1623 -1605,499 -3329,779 -5004,998 -5596,730 -5091,859 -5108,6895l-56 375 28254 4241 38 -251c-80,-609 -1713,-3728 -2102,-4582 -540,-1187 -1103,-3886 -1318,-5229 -606,-3795 -1326,-8057 -1355,-11876 -1543,1 -4293,1767 -5423,2897 -1662,1662 -2320,3735 -3411,4909z"/>
   <path class="fil1" d="M64153 136194l0 818 136 273 136 136c438,1616 4927,2627 6536,2875 4046,625 3615,1151 7295,-638 874,-425 2074,-1236 2935,-1703 1609,-872 1577,-1290 1684,-2954 240,-3754 1866,-3315 -2082,-5901l-137 -136 -16505 7229z"/>
   <path class="fil1" d="M54605 147651c39,1863 1404,3274 3273,3274l6275 0c2667,0 3199,-1357 5013,-3171 1202,-1202 3075,-2847 3990,-4194 -3158,-3 -8158,-711 -11216,-167 -1535,273 -7299,2409 -7335,4259z"/>
   <path class="fil1" d="M162730 138012c-479,-67 -3449,411 -3559,926 -113,529 1013,2549 1365,3174 1629,2894 1093,3074 3775,5501 3163,2862 2771,-1242 1607,-3516 -438,-857 -2708,-5665 -3187,-6084z"/>
   <path class="fil1" d="M169591 143696c566,-862 4439,-2136 3555,-3823 -780,-1490 -4408,-2126 -4647,-2997l409 -409 -3425 1052c337,1375 1099,2648 1722,3788 849,1553 678,3231 2385,2389z"/>
   <path class="fil1" d="M156320 139099c-3044,-440 -4002,709 -2843,3389 1229,2845 2118,2163 5475,2163l-2632 -5552z"/>
   <path class="fil1" d="M110393 125691c467,287 4747,1108 5728,1280 1448,254 1174,-523 1230,-1959 34,-863 272,-2386 226,-3100l-182 -351 -7003 4131z"/>
  </g>
  <path class="fil5" d="M25661 176502m14409 11791c-1588,992 -3297,1126 -5130,396 -1834,-723 -3469,-2239 -4911,-4547 -836,-1337 -1444,-2574 -1830,-3710 -384,-1141 -668,-2253 -849,-3347l3863 -2414 284 454c-149,1290 -74,2578 222,3872 295,1294 754,2431 1368,3413 157,251 383,572 684,954 303,386 581,675 848,872 328,237 652,394 977,478 321,87 674,10 1058,-230 355,-222 563,-562 635,-1023 68,-458 -11,-1020 -234,-1682 -234,-696 -497,-1420 -794,-2174 -297,-754 -529,-1488 -706,-2199 -404,-1632 -418,-2979 -39,-4048 382,-1066 1135,-1947 2255,-2647 1500,-937 3142,-1029 4931,-277 1789,751 3345,2188 4665,4301 662,1060 1218,2171 1658,3335 439,1163 742,2222 904,3173l-3708 2317 -277 -443c111,-973 50,-2040 -187,-3201 -241,-1159 -664,-2230 -1278,-3212 -217,-347 -457,-674 -716,-990 -260,-310 -557,-587 -884,-824 -283,-214 -599,-350 -944,-417 -349,-65 -662,-7 -943,168 -425,265 -652,633 -674,1099 -26,468 150,1210 525,2229 247,667 485,1310 709,1924 223,620 429,1303 622,2056 365,1488 384,2744 57,3765 -327,1021 -1048,1882 -2160,2577zm-1938 6501m23001 2193l-4049 -4341 -11209 10452 -3342 -3583 11209 -10453 -4046 -4338 2685 -2504 11436 12263 -2685 2504zm-7886 12702m5750 4178l-3862 -2806 2947 -4056 3862 2806 -2947 4056zm9227 6536m14733 6560l-12517 -5573 7727 -17355 4476 1993 -6232 13997 8041 3580 -1495 3358zm3922 1541m15540 4456l-13209 -3788 5236 -18262 13209 3788 -1012 3529 -8524 -2444 -904 3153 7908 2268 -1013 3533 -7908 -2268 -1294 4513 8524 2444 -1013 3533zm5101 1031m21369 -8388c-159,3027 -1150,5383 -2979,7071 -1824,1688 -4267,2454 -7325,2294 -3049,-160 -5394,-1177 -7036,-3047 -1638,-1870 -2378,-4316 -2219,-7343 160,-3049 1152,-5413 2975,-7092 1828,-1684 4267,-2441 7316,-2281 3040,159 5386,1168 7033,3033 1651,1862 2395,4317 2235,7366zm-6737 4466c504,-554 892,-1218 1164,-1989 272,-775 433,-1691 489,-2757 60,-1135 -20,-2112 -244,-2926 -219,-810 -533,-1476 -929,-1990 -408,-532 -889,-928 -1438,-1188 -553,-260 -1139,-404 -1748,-436 -622,-33 -1210,46 -1770,239 -560,193 -1083,532 -1567,1017 -451,456 -829,1090 -1143,1916 -313,821 -495,1784 -553,2889 -59,1131 16,2099 236,2908 219,810 525,1471 925,1998 400,522 876,918 1434,1187 558,265 1147,418 1778,451 626,33 1233,-58 1815,-271 582,-214 1098,-562 1551,-1048zm11157 4705m19337 -3759l-4634 901 -10402 -11262 2488 12800 -4408 857 -3625 -18649 5746 -1117 8879 9362 -2077 -10684 4408 -857 3625 18649zm5838 -1990m7853 -10303l-9029 3648 -1375 -3404 9029 -3648 1375 3404zm7218 4554m3791 -18176c-261,-402 -568,-691 -914,-871 -349,-178 -779,-216 -1284,-122 -351,67 -721,209 -1107,423 -389,216 -830,482 -1323,802l-1487 965 2787 4292 1260 -818c657,-427 1188,-818 1589,-1167 399,-353 673,-738 826,-1159 140,-408 193,-790 151,-1142 -42,-352 -208,-753 -500,-1202zm13588 6890l-5019 3259 -8142 -3022 -1892 1229 3795 5844 -4087 2654 -10347 -15933 6889 -4474c942,-612 1786,-1088 2533,-1417 748,-335 1533,-518 2357,-544 831,-31 1605,121 2327,457 724,340 1362,938 1917,1793 764,1176 1114,2315 1051,3410 -66,1097 -444,2220 -1135,3370l9752 3373zm2713 -1780m8066 -21493c2143,2144 3231,4456 3261,6945 34,2485 -1032,4813 -3197,6979 -2159,2159 -4484,3221 -6972,3190 -2485,-34 -4798,-1121 -6942,-3264 -2159,-2159 -3252,-4478 -3280,-6957 -28,-2485 1041,-4804 3200,-6963 2153,-2153 4472,-3221 6960,-3197 2488,18 4810,1109 6969,3267zm-1189 7995c-74,-745 -308,-1478 -699,-2196 -394,-721 -967,-1454 -1722,-2208 -804,-804 -1583,-1398 -2338,-1777 -748,-379 -1454,-591 -2100,-640 -668,-52 -1284,40 -1845,274 -563,237 -1062,576 -1494,1007 -440,440 -776,930 -1007,1475 -231,545 -330,1161 -292,1845 37,641 255,1346 659,2131 400,782 995,1561 1777,2344 801,801 1571,1392 2319,1771 748,379 1444,594 2103,650 656,52 1269,-37 1842,-271 570,-237 1078,-573 1524,-1019 444,-443 782,-955 1013,-1531 231,-576 317,-1192 259,-1854zm11073 -5055m-3437 -22848l-3233 4979 12854 8347 -2669 4109 -12854 -8347 -3231 4975 -3079 -2000 9132 -14063 3079 2000z"/>
  <circle class="fil6" cx="123457" cy="123457" r="80247"/>
  <polygon class="fil5" points="29085,131907 29679,135263 20911,136809 27030,138233 27439,140565 22180,143995 30945,142449 31506,145632 18414,147940 17722,144019 23771,139916 16686,138135 15994,134215 "/>
  <path id="1" class="fil5" d="M22601 114709c2116,73 3777,741 4982,1997 1204,1256 1768,2957 1695,5097 -76,2137 -756,3790 -2046,4960 -1290,1171 -2994,1720 -5110,1643 -2137,-73 -3805,-738 -5003,-1997 -1198,-1256 -1759,-2951 -1686,-5088 76,-2131 756,-3783 2037,-4960 1283,-1177 2994,-1726 5131,-1652zm3204 4661c-393,-348 -863,-613 -1405,-793 -546,-180 -1189,-280 -1933,-308 -799,-27 -1479,40 -2046,204 -564,168 -1024,390 -1381,677 -369,290 -637,631 -814,1021 -174,390 -268,799 -284,1229 -15,433 49,844 189,1235 143,390 384,750 732,1085 323,308 774,567 1353,774 579,207 1256,326 2027,351 793,30 1470,-37 2034,-201 561,-162 1024,-384 1384,-671 363,-283 634,-622 814,-1015 180,-393 277,-811 293,-1250 15,-442 -55,-863 -210,-1268 -156,-405 -406,-762 -753,-1070z"/>
  <path id="12" class="fil5" d="M25381 98014c1217,235 2250,726 3104,1466 854,741 1454,1585 1805,2533 262,713 396,1463 399,2253 3,790 -94,1704 -296,2744l-896 4604 -13051 -2540 918 -4732c207,-1064 476,-1966 805,-2701 326,-738 707,-1338 1134,-1799 726,-793 1604,-1360 2637,-1695 1034,-335 2180,-381 3442,-134zm-701 3472c-860,-165 -1625,-153 -2296,43 -674,192 -1247,595 -1722,1207 -238,311 -421,640 -552,988 -131,348 -268,884 -408,1610l-165 851 8170 1588 165 -851c155,-802 232,-1396 232,-1783 0,-390 -61,-780 -186,-1174 -232,-683 -613,-1223 -1143,-1625 -533,-399 -1232,-683 -2094,-854z"/>
  <polygon id="123" class="fil5" points="36040,87155 33068,96301 20424,92191 23394,83048 25842,83841 23924,89743 26104,90453 27885,84975 30330,85771 28552,91246 31677,92261 33592,86362 "/>
  <polygon id="1234" class="fil5" points="42001,75509 37498,83978 25757,77734 27367,74707 36836,79740 39729,74301 "/>
  <polygon id="12345" class="fil5" points="48848,65369 43211,73128 32455,65311 34471,62536 43147,68841 46769,63856 "/>
  <polygon id="123456" class="fil5" points="48827,49116 44812,53732 46681,55354 50400,51076 52339,52762 48620,57043 52906,60768 50669,63341 40635,54619 46885,47427 "/>
  <polygon id="1234567" class="fil5" points="66388,47887 59150,54180 50428,44147 53016,41897 60050,49988 64702,45949 "/>
  <path id="12345678" class="fil5" d="M75986 36092c872,1393 1116,2729 732,4000 -387,1271 -1402,2424 -3055,3454 -1649,1033 -3131,1442 -4439,1229 -1311,-216 -2399,-1015 -3265,-2405l-4500 -7201 2924 -1826 4393 7036c491,780 1018,1262 1585,1442 570,177 1222,37 1957,-424 729,-454 1143,-972 1250,-1549 107,-579 -94,-1274 -604,-2089l-4396 -7033 2924 -1826 4494 7192z"/>
  <path id="123456789" class="fil5" d="M92614 33300c-472,430 -1128,927 -1960,1494 -835,567 -1710,1024 -2619,1375 -2113,808 -3985,869 -5622,180 -1634,-686 -2841,-2043 -3616,-4067 -741,-1927 -735,-3713 18,-5357 753,-1643 2207,-2878 4363,-3707 817,-314 1622,-537 2418,-674 796,-137 1732,-159 2805,-67l1116 2908 -357 137c-201,-58 -494,-134 -875,-235 -381,-98 -741,-168 -1076,-213 -390,-52 -826,-61 -1305,-24 -479,37 -960,149 -1445,335 -567,217 -1049,497 -1445,841 -400,345 -713,759 -948,1244 -223,466 -335,997 -341,1588 -6,591 122,1226 378,1896 528,1372 1296,2283 2302,2732 1006,448 2222,400 3646,-146 122,-46 253,-100 399,-162 146,-64 277,-122 396,-183l-936 -2433 -2475 951 -899 -2341 5725 -2198 2354 6125z"/>
  <path id="12345678910" class="fil5" d="M105891 26321c271,1284 -49,2439 -966,3469 -915,1033 -2305,1747 -4168,2143 -1079,229 -2036,332 -2878,314 -841,-18 -1643,-101 -2402,-244l-665 -3116 369 -79c811,406 1677,665 2597,780 924,116 1780,88 2573,-82 201,-43 466,-116 790,-222 326,-104 585,-220 777,-348 232,-159 418,-335 549,-527 134,-192 168,-442 101,-750 -61,-287 -235,-506 -518,-661 -287,-156 -674,-241 -1165,-250 -512,-12 -1052,-12 -1619,0 -567,15 -1104,-6 -1616,-61 -1171,-122 -2061,-439 -2671,-945 -610,-506 -1009,-1210 -1201,-2113 -259,-1210 73,-2314 997,-3311 924,-997 2238,-1677 3945,-2040 857,-183 1720,-280 2591,-290 869,-12 1637,43 2302,162l637 2997 -357 76c-613,-308 -1329,-521 -2149,-643 -820,-122 -1628,-98 -2421,70 -277,61 -552,137 -820,235 -268,98 -521,226 -753,384 -210,134 -378,308 -503,521 -125,213 -162,433 -116,659 73,345 262,579 561,707 302,128 832,189 1594,186 497,0 976,-3 1436,-3 460,0 960,28 1500,82 1067,116 1896,402 2491,863 595,463 985,1140 1177,2037z"/>
  <path id="1234567891011" class="fil5" d="M119946 19906c43,594 -21,1183 -189,1765 -168,579 -433,1076 -790,1491 -494,558 -1055,994 -1686,1308 -631,314 -1433,503 -2399,570l-2128 149 302 4320 -3421 238 -927 -13262 5628 -393c844,-58 1561,-37 2149,70 588,104 1116,287 1582,546 558,314 997,735 1317,1259 320,528 509,1174 561,1939zm-3530 329c-24,-375 -149,-689 -369,-945 -223,-256 -470,-430 -744,-518 -366,-116 -720,-171 -1058,-162 -339,9 -793,34 -1357,70l-585 43 277 3972 979 -70c582,-40 1058,-110 1430,-207 372,-98 680,-262 921,-494 204,-204 348,-442 427,-713 79,-271 107,-598 79,-976z"/>
  <path id="123456789101112" class="fil5" d="M137025 23162c-146,2113 -869,3750 -2168,4908 -1299,1162 -3018,1665 -5155,1515 -2131,-149 -3759,-887 -4884,-2216 -1122,-1329 -1613,-3049 -1463,-5161 150,-2134 872,-3774 2171,-4930 1296,-1152 3012,-1655 5143,-1506 2125,149 3753,884 4884,2207 1131,1323 1622,3052 1473,5183zm-4768 3040c363,-378 640,-839 839,-1375 201,-540 326,-1180 378,-1921 55,-796 9,-1479 -134,-2052 -146,-570 -354,-1040 -628,-1402 -277,-378 -607,-661 -991,-850 -384,-186 -790,-296 -1216,-326 -436,-30 -848,18 -1241,146 -396,128 -765,360 -1110,692 -320,311 -594,753 -823,1326 -229,570 -369,1244 -421,2015 -58,790 -12,1470 128,2037 143,567 350,1036 622,1408 274,372 604,652 988,848 387,195 799,305 1241,338 439,30 863,-27 1271,-168 411,-140 777,-381 1097,-716z"/>
  <path id="12345678910111213" class="fil5" d="M149141 22940c76,-326 73,-619 -6,-884 -79,-262 -268,-497 -561,-704 -204,-146 -454,-262 -753,-354 -296,-89 -643,-180 -1046,-274l-1207 -277 -808 3488 1027 238c534,122 988,198 1360,232 369,30 698,-18 985,-150 274,-125 491,-287 646,-479 159,-192 280,-473 363,-835zm3137 10189l-4079 -942 -2436 -5567 -1540 -354 -1097 4750 -3323 -768 2991 -12954 5603 1296c765,174 1412,372 1945,585 530,213 1003,521 1418,924 421,402 720,866 899,1393 183,528 192,1140 30,1835 -220,957 -622,1686 -1204,2186 -585,500 -1332,857 -2250,1067l3042 6549z"/>
  <polygon id="1234567891011121314" class="fil5" points="167854,27851 163980,26364 160135,36372 156934,35144 160778,25135 156900,23647 157824,21245 168775,25449 "/>
  <polygon id="123456789101112131415" class="fil5" points="183455,33641 172608,42732 169281,40811 171733,26873 174849,28671 172961,38369 180415,31888 "/>
  <polygon id="12345678910111213141516" class="fil5" points="186394,52744 178815,46827 187001,36351 194577,42269 192995,44296 188104,40476 186693,42284 191229,45830 189647,47854 185111,44308 183086,46900 187976,50720 "/>
  <path id="1234567891011121314151617" class="fil5" d="M200669 54189c241,-232 396,-479 472,-744 76,-265 49,-564 -85,-899 -91,-232 -238,-466 -439,-704 -198,-238 -442,-503 -726,-799l-863 -893 -2576 2488 732 759c381,393 720,704 1012,933 296,229 598,366 909,412 299,46 567,27 805,-49 235,-76 491,-244 759,-503zm-2921 10256l-2909 -3012 988 -5997 -1098 -1137 -3506 3387 -2369 -2454 9564 -9235 3994 4137c546,564 985,1082 1311,1549 329,470 558,985 689,1549 131,564 131,1119 -6,1659 -134,543 -460,1061 -972,1558 -707,680 -1442,1073 -2204,1177 -759,101 -1582,-9 -2466,-332l-1015 7152z"/>
  <polygon id="123456789101112131415161718" class="fil5" points="204318,74140 198666,66360 209422,58546 215077,66326 212995,67838 209349,62817 207492,64164 210876,68826 208797,70335 205410,65677 202751,67609 206400,72628 "/>
  <polygon id="12345678910111213141516171819" class="fil5" points="209154,83694 205620,76759 207718,75689 208709,77631 216352,73734 215364,71792 217465,70722 220998,77661 218898,78731 217910,76789 210263,80685 211254,82624 "/>
  <polygon id="1234567891011121314151617181920" class="fil5" points="214730,98328 213657,95203 220447,86896 211819,89868 210794,86896 223367,82566 224702,86441 219078,93508 226282,91027 227303,93999 "/>
  <polygon id="123456789101112131415161718192021" class="fil5" points="217812,117191 216642,107645 229836,106026 231007,115569 228455,115883 227699,109724 225422,110005 226123,115721 223571,116032 222870,110319 219608,110718 220364,116877 "/>
  <polygon id="12345678910111213141516171819202122" class="fil5" points="217840,124102 217724,120767 221230,120645 221346,123980 "/>
  <polygon id="1234567891011121314151617181920212223" class="fil5" points="229923,141336 217203,135123 217603,131303 231337,127870 230962,131449 221334,133672 230288,137845 "/>
  <polygon id="123456789101112131415161718192021222324" class="fil5" points="215146,145745 215896,142492 219316,143281 218566,146534 "/>
 </g>
</svg>
